<svg height="592" version="1.1" width="592" xmlns="http://www.w3.org/2000/svg"><defs></defs><line x1="10" x2="10" y1="296.00000000000006" y2="296.00000000000006" stroke="#ff0000" style="stroke-width: 1; stroke-linecap: round;"></line><line x1="10.141123735400754" x2="10.317495760876568" y1="304.9834770963447" y2="309.47244490295776" stroke="#ff1300" style="stroke-width: 1; stroke-linecap: round;"></line><line x1="10.564355669514327" x2="11.269278123519143" y1="313.9580885853837" y2="322.9149776090951" stroke="#ff2600" style="stroke-width: 1; stroke-linecap: round;"></line><line x1="11.269278123519143" x2="12.853233893064555" y1="322.9149776090951" y2="336.2977523341487" stroke="#ff3900" style="stroke-width: 1; stroke-linecap: round;"></line><line x1="12.255195424059366" x2="15.06584629159505" y1="331.8453047993911" y2="349.5910559715172" stroke="#ff4c00" style="stroke-width: 1; stroke-linecap: round;"></line><line x1="13.52113458979062" x2="17.90220276626451" y1="340.74025700150605" y2="362.76537406278896" stroke="#ff5f00" style="stroke-width: 1; stroke-linecap: round;"></line><line x1="15.06584629159505" x2="21.356005896394322" y1="349.5910559715172" y2="375.79145632721963" stroke="#ff7300" style="stroke-width: 1; stroke-linecap: round;"></line><line x1="16.887806085518264" x2="25.419587375322067" y1="358.3889670394112" y2="388.6403816046708" stroke="#ff8600" style="stroke-width: 1; stroke-linecap: round;"></line><line x1="18.98521591721152" x2="30.08392503596008" y1="367.12530772914846" y2="401.2836220678178" stroke="#ff9900" style="stroke-width: 1; stroke-linecap: round;"></line><line x1="21.356005896394322" x2="35.338662882262724" y1="375.79145632721963" y2="413.6931065610612" stroke="#ffac00" style="stroke-width: 1; stroke-linecap: round;"></line><line x1="23.997836339586115" x2="41.1721340821268" y1="384.378860391235" y2="425.8412829255104" stroke="#ffbf00" style="stroke-width: 1; stroke-linecap: round;"></line><line x1="26.908100079091525" x2="47.57138687067729" y1="392.8790451901534" y2="437.7011791716685" stroke="#ffd200" style="stroke-width: 1; stroke-linecap: round;"></line><line x1="30.08392503596008" x2="54.52221330642368" y1="401.2836220678178" y2="449.24646336399303" stroke="#ffe500" style="stroke-width: 1; stroke-linecap: round;"></line><line x1="33.52217705438147" x2="62.00918081644335" y1="409.5842967215474" y2="460.4515020843777" stroke="#fff800" style="stroke-width: 1; stroke-linecap: round;"></line><line x1="37.21946299471841" x2="70.01566646055261" y1="417.7728773876107" y2="471.2914173447514" stroke="#f3ff00" style="stroke-width: 1; stroke-linecap: round;"></line><line x1="41.1721340821268" x2="78.52389383839119" y1="425.8412829255104" y2="481.7421418224326" stroke="#e0ff00" style="stroke-width: 1; stroke-linecap: round;"></line><line x1="45.376289507455056" x2="87.51497255747626" y1="433.7815507930907" y2="491.7804722956049" stroke="#cdff00" style="stroke-width: 1; stroke-linecap: round;"></line><line x1="49.82778027687215" x2="96.96894017459812" y1="441.58584490460623" y2="501.384121160272" stroke="#baff00" style="stroke-width: 1; stroke-linecap: round;"></line><line x1="54.52221330642368" x2="106.86480651743551" y1="449.24646336399303" y2="510.5317659143114" stroke="#a7ff00" style="stroke-width: 1; stroke-linecap: round;"></line><line x1="59.45495575747529" x2="117.1806002879884" y1="456.7558460657093" y2="519.2030964987623" stroke="#95ff00" style="stroke-width: 1; stroke-linecap: round;"></line><line x1="64.62113960876505" x2="127.89341784435271" y1="464.10658215564735" y2="527.378860391235" stroke="#82ff00" style="stroke-width: 1; stroke-linecap: round;"></line><line x1="70.01566646055261" x2="138.97947405253427" y1="471.2914173447514" y2="535.0409053513253" stroke="#6fff00" style="stroke-width: 1; stroke-linecap: round;"></line><line x1="75.63321256612431" x2="150.41415509539394" y1="478.30326106812527" y2="542.1722197231279" stroke="#5cff00" style="stroke-width: 1; stroke-linecap: round;"></line><line x1="81.46823408568858" x2="162.17207312147605" y1="485.13519348256443" y2="548.7569702053663" stroke="#49ff00" style="stroke-width: 1; stroke-linecap: round;"></line><line x1="87.51497255747626" x2="174.22712261238922" y1="491.7804722956049" y2="554.7805370052815" stroke="#36ff00" style="stroke-width: 1; stroke-linecap: round;"></line><line x1="93.76746058064742" x2="186.55253834358433" y1="498.23253941935263" y2="560.229546298228" stroke="#24ff00" style="stroke-width: 1; stroke-linecap: round;"></line><line x1="100.21952770439512" x2="199.12095480984667" y1="504.4850274425238" y2="565.0918999209084" stroke="#11ff00" style="stroke-width: 1; stroke-linecap: round;"></line><line x1="106.86480651743551" x2="211.90446698356112" y1="510.5317659143114" y2="569.3568022323225" stroke="#00ff02" style="stroke-width: 1; stroke-linecap: round;"></line><line x1="113.69673893187482" x2="224.8746922708515" y1="516.3667874338757" y2="573.0147840827885" stroke="#00ff14" style="stroke-width: 1; stroke-linecap: round;"></line><line x1="120.7085826552487" x2="238.0028335280374" y1="521.9843335394474" y2="576.057723837825" stroke="#00ff27" style="stroke-width: 1; stroke-linecap: round;"></line><line x1="127.89341784435271" x2="251.25974299849392" y1="527.378860391235" y2="578.4788654102094" stroke="#00ff3a" style="stroke-width: 1; stroke-linecap: round;"></line><line x1="135.2441539342906" x2="264.6159870279611" y1="532.5450442425247" y2="580.2728332601814" stroke="#00ff4c" style="stroke-width: 1; stroke-linecap: round;"></line><line x1="142.75353663600703" x2="278.0419114146164" y1="537.4777866935764" y2="581.4356443304857" stroke="#00ff5f" style="stroke-width: 1; stroke-linecap: round;"></line><line x1="150.41415509539394" x2="291.50770724881926" y1="542.1722197231279" y2="581.964716889755" stroke="#00ff71" style="stroke-width: 1; stroke-linecap: round;"></line><line x1="158.2184492069095" x2="304.9834770963447" y1="546.623710492545" y2="581.8588762645993" stroke="#00ff83" style="stroke-width: 1; stroke-linecap: round;"></line><line x1="166.15871707448963" x2="318.4393013781637" y1="550.8278659178732" y2="581.1183574476746" stroke="#00ff96" style="stroke-width: 1; stroke-linecap: round;"></line><line x1="174.22712261238922" x2="331.845304799391" y1="554.7805370052815" y2="579.7448045759406" stroke="#00ffa8" style="stroke-width: 1; stroke-linecap: round;"></line><line x1="182.41570327845278" x2="345.17172267991117" y1="558.4778229456186" y2="577.7412672802653" stroke="#00ffbb" style="stroke-width: 1; stroke-linecap: round;"></line><line x1="190.71637793218218" x2="358.38896703941117" y1="561.9160749640399" y2="575.1121939144818" stroke="#00ffcd" style="stroke-width: 1; stroke-linecap: round;"></line><line x1="199.12095480984667" x2="371.4676922900967" y1="565.0918999209084" y2="571.8634216789303" stroke="#00ffdf" style="stroke-width: 1; stroke-linecap: round;"></line><line x1="207.62113960876508" x2="384.378860391235" y1="568.002163660414" y2="568.0021636604139" stroke="#00fff1" style="stroke-width: 1; stroke-linecap: round;"></line><line x1="216.20854367278048" x2="397.09380532086755" y1="570.6439941036058" y2="563.536992817342" stroke="#00fbff" style="stroke-width: 1; stroke-linecap: round;"></line><line x1="224.8746922708515" x2="409.5842967215473" y1="573.0147840827885" y2="558.4778229456185" stroke="#00e9ff" style="stroke-width: 1; stroke-linecap: round;"></line><line x1="233.6110329605889" x2="421.82260257879176" y1="575.1121939144818" y2="552.835886667536" stroke="#00d7ff" style="stroke-width: 1; stroke-linecap: round;"></line><line x1="242.40894402848284" x2="433.7815507930907" y1="576.9341537084049" y2="546.6237104925449" stroke="#00c5ff" style="stroke-width: 1; stroke-linecap: round;"></line><line x1="251.25974299849392" x2="445.43458950876146" y1="578.4788654102094" y2="539.8550870052703" stroke="#00b3ff" style="stroke-width: 1; stroke-linecap: round;"></line><line x1="260.15469520060896" x2="456.7558460657093" y1="579.7448045759406" y2="532.5450442425247" stroke="#00a1ff" style="stroke-width: 1; stroke-linecap: round;"></line><line x1="269.0850223909049" x2="467.7201844432028" y1="580.7307218764809" y2="524.7098123273079" stroke="#008fff" style="stroke-width: 1; stroke-linecap: round;"></line><line x1="278.0419114146164" x2="478.30326106812527" y1="581.4356443304857" y2="516.3667874338757" stroke="#007dff" style="stroke-width: 1; stroke-linecap: round;"></line><line x1="287.0165229036553" x2="488.4815788637952" y1="581.8588762645993" y2="507.5344931638823" stroke="#006bff" style="stroke-width: 1; stroke-linecap: round;"></line><line x1="296" x2="498.23253941935263" y1="582" y2="498.2325394193526" stroke="#005aff" style="stroke-width: 1; stroke-linecap: round;"></line><line x1="304.9834770963447" x2="507.5344931638823" y1="581.8588762645993" y2="488.4815788637952" stroke="#0048ff" style="stroke-width: 1; stroke-linecap: round;"></line><line x1="313.9580885853837" x2="516.3667874338757" y1="581.4356443304857" y2="478.30326106812527" stroke="#0037ff" style="stroke-width: 1; stroke-linecap: round;"></line><line x1="322.9149776090951" x2="524.7098123273079" y1="580.7307218764809" y2="467.72018444320287" stroke="#0025ff" style="stroke-width: 1; stroke-linecap: round;"></line><line x1="331.845304799391" x2="532.5450442425247" y1="579.7448045759406" y2="456.7558460657093" stroke="#0014ff" style="stroke-width: 1; stroke-linecap: round;"></line><line x1="340.7402570015061" x2="539.8550870052704" y1="578.4788654102094" y2="445.43458950876135" stroke="#0002ff" style="stroke-width: 1; stroke-linecap: round;"></line><line x1="349.59105597151733" x2="546.6237104925449" y1="576.9341537084049" y2="433.7815507930906" stroke="#0f00ff" style="stroke-width: 1; stroke-linecap: round;"></line><line x1="358.38896703941117" x2="552.8358866675361" y1="575.1121939144818" y2="421.8226025787917" stroke="#2000ff" style="stroke-width: 1; stroke-linecap: round;"></line><line x1="367.12530772914846" x2="558.4778229456185" y1="573.0147840827885" y2="409.5842967215473" stroke="#3100ff" style="stroke-width: 1; stroke-linecap: round;"></line><line x1="375.7914563272195" x2="563.536992817342" y1="570.6439941036058" y2="397.0938053208675" stroke="#4300ff" style="stroke-width: 1; stroke-linecap: round;"></line><line x1="384.378860391235" x2="568.0021636604139" y1="568.0021636604139" y2="384.378860391235" stroke="#5400ff" style="stroke-width: 1; stroke-linecap: round;"></line><line x1="392.87904519015336" x2="571.8634216789303" y1="565.0918999209084" y2="371.4676922900966" stroke="#6500ff" style="stroke-width: 1; stroke-linecap: round;"></line><line x1="401.2836220678179" x2="575.1121939144818" y1="561.9160749640399" y2="358.3889670394111" stroke="#7600ff" style="stroke-width: 1; stroke-linecap: round;"></line><line x1="409.5842967215473" x2="577.7412672802653" y1="558.4778229456185" y2="345.17172267991117" stroke="#8600ff" style="stroke-width: 1; stroke-linecap: round;"></line><line x1="417.77287738761083" x2="579.7448045759406" y1="554.7805370052815" y2="331.8453047993911" stroke="#9700ff" style="stroke-width: 1; stroke-linecap: round;"></line><line x1="425.8412829255104" x2="581.1183574476746" y1="550.8278659178732" y2="318.43930137816363" stroke="#a800ff" style="stroke-width: 1; stroke-linecap: round;"></line><line x1="433.7815507930907" x2="581.8588762645993" y1="546.6237104925449" y2="304.98347709634476" stroke="#b800ff" style="stroke-width: 1; stroke-linecap: round;"></line><line x1="441.58584490460623" x2="581.964716889755" y1="542.1722197231279" y2="291.50770724881943" stroke="#c900ff" style="stroke-width: 1; stroke-linecap: round;"></line><line x1="449.2464633639931" x2="581.4356443304857" y1="537.4777866935763" y2="278.0419114146164" stroke="#d900ff" style="stroke-width: 1; stroke-linecap: round;"></line><line x1="456.7558460657093" x2="580.2728332601814" y1="532.5450442425247" y2="264.6159870279611" stroke="#ea00ff" style="stroke-width: 1; stroke-linecap: round;"></line><line x1="464.1065821556473" x2="578.4788654102094" y1="527.378860391235" y2="251.25974299849398" stroke="#fa00ff" style="stroke-width: 1; stroke-linecap: round;"></line><line x1="471.29141734475127" x2="576.057723837825" y1="521.9843335394474" y2="238.00283352803748" stroke="#ff00f4" style="stroke-width: 1; stroke-linecap: round;"></line><line x1="478.30326106812527" x2="573.0147840827885" y1="516.3667874338757" y2="224.87469227085148" stroke="#ff00e3" style="stroke-width: 1; stroke-linecap: round;"></line><line x1="485.1351934825645" x2="569.3568022323225" y1="510.5317659143114" y2="211.9044669835611" stroke="#ff00d3" style="stroke-width: 1; stroke-linecap: round;"></line><line x1="491.7804722956049" x2="565.0918999209084" y1="504.4850274425237" y2="199.1209548098466" stroke="#ff00c3" style="stroke-width: 1; stroke-linecap: round;"></line><line x1="498.23253941935263" x2="560.229546298228" y1="498.2325394193526" y2="186.55253834358433" stroke="#ff00b3" style="stroke-width: 1; stroke-linecap: round;"></line><line x1="504.48502744252374" x2="554.7805370052815" y1="491.7804722956049" y2="174.22712261238928" stroke="#ff00a4" style="stroke-width: 1; stroke-linecap: round;"></line><line x1="510.53176591431145" x2="548.7569702053663" y1="485.13519348256443" y2="162.172073121476" stroke="#ff0094" style="stroke-width: 1; stroke-linecap: round;"></line><line x1="516.3667874338757" x2="542.1722197231279" y1="478.30326106812527" y2="150.41415509539382" stroke="#ff0084" style="stroke-width: 1; stroke-linecap: round;"></line><line x1="521.9843335394474" x2="535.0409053513253" y1="471.2914173447512" y2="138.9794740525343" stroke="#ff0075" style="stroke-width: 1; stroke-linecap: round;"></line><line x1="527.378860391235" x2="527.378860391235" y1="464.1065821556473" y2="127.89341784435268" stroke="#ff0065" style="stroke-width: 1; stroke-linecap: round;"></line><line x1="532.5450442425247" x2="519.2030964987623" y1="456.7558460657093" y2="117.18060028798826" stroke="#ff0056" style="stroke-width: 1; stroke-linecap: round;"></line><line x1="537.4777866935763" x2="510.53176591431145" y1="449.24646336399303" y2="106.86480651743554" stroke="#ff0046" style="stroke-width: 1; stroke-linecap: round;"></line><line x1="542.1722197231279" x2="501.38412116027195" y1="441.5858449046062" y2="96.96894017459803" stroke="#ff0037" style="stroke-width: 1; stroke-linecap: round;"></line><line x1="546.6237104925449" x2="491.7804722956049" y1="433.7815507930906" y2="87.51497255747628" stroke="#ff0028" style="stroke-width: 1; stroke-linecap: round;"></line><line x1="550.8278659178732" x2="481.74214182243264" y1="425.84128292551037" y2="78.52389383839125" stroke="#ff0019" style="stroke-width: 1; stroke-linecap: round;"></line><line x1="554.7805370052815" x2="471.2914173447512" y1="417.7728773876107" y2="70.01566646055252" stroke="#ff000a" style="stroke-width: 1; stroke-linecap: round;"></line><line x1="558.4778229456185" x2="460.4515020843778" y1="409.5842967215473" y2="62.009180816443376" stroke="#ff0500" style="stroke-width: 1; stroke-linecap: round;"></line><line x1="561.9160749640399" x2="449.2464633639929" y1="401.2836220678179" y2="54.522213306423595" stroke="#ff1400" style="stroke-width: 1; stroke-linecap: round;"></line><line x1="565.0918999209084" x2="437.7011791716686" y1="392.8790451901534" y2="47.571386870677316" stroke="#ff2200" style="stroke-width: 1; stroke-linecap: round;"></line><line x1="568.0021636604139" x2="425.8412829255103" y1="384.378860391235" y2="41.172134082126746" stroke="#ff3100" style="stroke-width: 1; stroke-linecap: round;"></line><line x1="570.6439941036058" x2="413.6931065610612" y1="375.7914563272195" y2="35.338662882262724" stroke="#ff3f00" style="stroke-width: 1; stroke-linecap: round;"></line><line x1="573.0147840827885" x2="401.283622067818" y1="367.1253077291485" y2="30.083925035960135" stroke="#ff4e00" style="stroke-width: 1; stroke-linecap: round;"></line><line x1="575.1121939144818" x2="388.6403816046708" y1="358.3889670394111" y2="25.419587375322067" stroke="#ff5c00" style="stroke-width: 1; stroke-linecap: round;"></line><line x1="576.9341537084049" x2="375.7914563272197" y1="349.5910559715173" y2="21.356005896394322" stroke="#ff6a00" style="stroke-width: 1; stroke-linecap: round;"></line><line x1="578.4788654102094" x2="362.76537406278896" y1="340.74025700150605" y2="17.90220276626451" stroke="#ff7800" style="stroke-width: 1; stroke-linecap: round;"></line><line x1="579.7448045759406" x2="349.59105597151733" y1="331.8453047993911" y2="15.06584629159505" stroke="#ff8600" style="stroke-width: 1; stroke-linecap: round;"></line><line x1="580.7307218764809" x2="336.29775233414847" y1="322.9149776090951" y2="12.853233893064498" stroke="#ff9400" style="stroke-width: 1; stroke-linecap: round;"></line><line x1="581.4356443304857" x2="322.91497760909505" y1="313.9580885853836" y2="11.269278123519143" stroke="#ffa200" style="stroke-width: 1; stroke-linecap: round;"></line><line x1="581.8588762645993" x2="309.47244490295776" y1="304.98347709634476" y2="10.317495760876568" stroke="#ffaf00" style="stroke-width: 1; stroke-linecap: round;"></line><line x1="582" x2="296" y1="296" y2="10" stroke="#ffbd00" style="stroke-width: 1; stroke-linecap: round;"></line><line x1="581.8588762645993" x2="282.5275550970423" y1="287.01652290365524" y2="10.317495760876568" stroke="#ffca00" style="stroke-width: 1; stroke-linecap: round;"></line><line x1="581.4356443304857" x2="269.08502239090507" y1="278.0419114146164" y2="11.269278123519086" stroke="#ffd800" style="stroke-width: 1; stroke-linecap: round;"></line><line x1="580.7307218764809" x2="255.70224766585153" y1="269.0850223909049" y2="12.853233893064498" stroke="#ffe500" style="stroke-width: 1; stroke-linecap: round;"></line><line x1="579.7448045759406" x2="242.4089440284827" y1="260.1546952006089" y2="15.06584629159505" stroke="#fff200" style="stroke-width: 1; stroke-linecap: round;"></line><line x1="578.4788654102094" x2="229.23462593721115" y1="251.25974299849398" y2="17.902202766264452" stroke="#ffff00" style="stroke-width: 1; stroke-linecap: round;"></line><line x1="576.9341537084049" x2="216.20854367278048" y1="242.4089440284827" y2="21.356005896394265" stroke="#f2ff00" style="stroke-width: 1; stroke-linecap: round;"></line><line x1="575.1121939144817" x2="203.35961839532936" y1="233.61103296058872" y2="25.41958737532201" stroke="#e5ff00" style="stroke-width: 1; stroke-linecap: round;"></line><line x1="573.0147840827885" x2="190.71637793218204" y1="224.87469227085148" y2="30.083925035960135" stroke="#d8ff00" style="stroke-width: 1; stroke-linecap: round;"></line><line x1="570.6439941036057" x2="178.30689343893886" y1="216.20854367278037" y2="35.33866288226267" stroke="#ccff00" style="stroke-width: 1; stroke-linecap: round;"></line><line x1="568.0021636604139" x2="166.15871707448963" y1="207.6211396087649" y2="41.172134082126775" stroke="#bfff00" style="stroke-width: 1; stroke-linecap: round;"></line><line x1="565.0918999209084" x2="154.29882082833154" y1="199.1209548098466" y2="47.57138687067726" stroke="#b3ff00" style="stroke-width: 1; stroke-linecap: round;"></line><line x1="561.9160749640398" x2="142.7535366360071" y1="190.71637793218198" y2="54.522213306423595" stroke="#a7ff00" style="stroke-width: 1; stroke-linecap: round;"></line><line x1="558.4778229456186" x2="131.54849791562222" y1="182.41570327845284" y2="62.009180816443376" stroke="#9bff00" style="stroke-width: 1; stroke-linecap: round;"></line><line x1="554.7805370052815" x2="120.7085826552487" y1="174.22712261238928" y2="70.01566646055258" stroke="#8fff00" style="stroke-width: 1; stroke-linecap: round;"></line><line x1="550.8278659178733" x2="110.2578581775675" y1="166.15871707448974" y2="78.52389383839113" stroke="#83ff00" style="stroke-width: 1; stroke-linecap: round;"></line><line x1="546.623710492545" x2="100.21952770439512" y1="158.21844920690953" y2="87.51497255747623" stroke="#77ff00" style="stroke-width: 1; stroke-linecap: round;"></line><line x1="542.1722197231279" x2="90.61587883972814" y1="150.41415509539382" y2="96.96894017459798" stroke="#6bff00" style="stroke-width: 1; stroke-linecap: round;"></line><line x1="537.4777866935764" x2="81.46823408568858" y1="142.75353663600708" y2="106.86480651743557" stroke="#60ff00" style="stroke-width: 1; stroke-linecap: round;"></line><line x1="532.5450442425247" x2="72.79690350123764" y1="135.2441539342907" y2="117.18060028798834" stroke="#55ff00" style="stroke-width: 1; stroke-linecap: round;"></line><line x1="527.378860391235" x2="64.62113960876505" y1="127.89341784435268" y2="127.89341784435265" stroke="#49ff00" style="stroke-width: 1; stroke-linecap: round;"></line><line x1="521.9843335394474" x2="56.95909464867478" y1="120.70858265524879" y2="138.97947405253424" stroke="#3eff00" style="stroke-width: 1; stroke-linecap: round;"></line><line x1="516.3667874338757" x2="49.82778027687203" y1="113.69673893187476" y2="150.414155095394" stroke="#33ff00" style="stroke-width: 1; stroke-linecap: round;"></line><line x1="510.53176591431145" x2="43.24302979463363" y1="106.86480651743554" y2="162.17207312147613" stroke="#28ff00" style="stroke-width: 1; stroke-linecap: round;"></line><line x1="504.48502744252374" x2="37.21946299471841" y1="100.21952770439509" y2="174.22712261238928" stroke="#1dff00" style="stroke-width: 1; stroke-linecap: round;"></line><line x1="498.23253941935263" x2="31.770453701772" y1="93.76746058064742" y2="186.55253834358427" stroke="#13ff00" style="stroke-width: 1; stroke-linecap: round;"></line><line x1="491.7804722956049" x2="26.908100079091525" y1="87.51497255747628" y2="199.12095480984655" stroke="#08ff00" style="stroke-width: 1; stroke-linecap: round;"></line><line x1="485.1351934825645" x2="22.643197767677634" y1="81.46823408568861" y2="211.9044669835609" stroke="#00ff02" style="stroke-width: 1; stroke-linecap: round;"></line><line x1="478.30326106812527" x2="18.985215917211576" y1="75.63321256612429" y2="224.87469227085126" stroke="#00ff0d" style="stroke-width: 1; stroke-linecap: round;"></line><line x1="471.2914173447512" x2="15.942276162175006" y1="70.01566646055252" y2="238.00283352803734" stroke="#00ff17" style="stroke-width: 1; stroke-linecap: round;"></line><line x1="464.1065821556473" x2="13.52113458979062" y1="64.62113960876502" y2="251.25974299849395" stroke="#00ff21" style="stroke-width: 1; stroke-linecap: round;"></line><line x1="456.7558460657093" x2="11.727166739818585" y1="59.45495575747532" y2="264.61598702796107" stroke="#00ff2b" style="stroke-width: 1; stroke-linecap: round;"></line><line x1="449.2464633639929" x2="10.564355669514327" y1="54.522213306423595" y2="278.0419114146162" stroke="#00ff34" style="stroke-width: 1; stroke-linecap: round;"></line><line x1="441.5858449046062" x2="10.035283110245075" y1="49.82778027687212" y2="291.50770724881943" stroke="#00ff3e" style="stroke-width: 1; stroke-linecap: round;"></line><line x1="433.78155079309045" x2="10.141123735400754" y1="45.37628950745494" y2="304.9834770963447" stroke="#00ff48" style="stroke-width: 1; stroke-linecap: round;"></line><line x1="425.8412829255103" x2="10.881642552325388" y1="41.172134082126746" y2="318.4393013781637" stroke="#00ff51" style="stroke-width: 1; stroke-linecap: round;"></line><line x1="417.7728773876107" x2="12.255195424059366" y1="37.21946299471841" y2="331.8453047993911" stroke="#00ff5a" style="stroke-width: 1; stroke-linecap: round;"></line><line x1="409.58429672154716" x2="14.258732719734667" y1="33.52217705438136" y2="345.1717226799111" stroke="#00ff63" style="stroke-width: 1; stroke-linecap: round;"></line><line x1="401.283622067818" x2="16.887806085518264" y1="30.083925035960135" y2="358.3889670394112" stroke="#00ff6c" style="stroke-width: 1; stroke-linecap: round;"></line><line x1="392.8790451901534" x2="20.136578321069805" y1="26.908100079091525" y2="371.46769229009675" stroke="#00ff75" style="stroke-width: 1; stroke-linecap: round;"></line><line x1="384.3788603912351" x2="23.997836339586115" y1="23.997836339586115" y2="384.378860391235" stroke="#00ff7e" style="stroke-width: 1; stroke-linecap: round;"></line><line x1="375.7914563272197" x2="28.46300718265792" y1="21.356005896394322" y2="397.0938053208675" stroke="#00ff87" style="stroke-width: 1; stroke-linecap: round;"></line><line x1="367.1253077291485" x2="33.52217705438147" y1="18.98521591721152" y2="409.5842967215474" stroke="#00ff8f" style="stroke-width: 1; stroke-linecap: round;"></line><line x1="358.3889670394113" x2="39.164113332463955" y1="16.887806085518264" y2="421.82260257879176" stroke="#00ff97" style="stroke-width: 1; stroke-linecap: round;"></line><line x1="349.59105597151733" x2="45.376289507455056" y1="15.06584629159505" y2="433.7815507930907" stroke="#00ffa0" style="stroke-width: 1; stroke-linecap: round;"></line><line x1="340.74025700150605" x2="52.14491299472962" y1="13.52113458979062" y2="445.4345895087614" stroke="#00ffa8" style="stroke-width: 1; stroke-linecap: round;"></line><line x1="331.84530479939093" x2="59.45495575747529" y1="12.255195424059309" y2="456.7558460657093" stroke="#00ffb0" style="stroke-width: 1; stroke-linecap: round;"></line><line x1="322.91497760909505" x2="67.29018767269213" y1="11.269278123519143" y2="467.7201844432028" stroke="#00ffb7" style="stroke-width: 1; stroke-linecap: round;"></line><line x1="313.95808858538373" x2="75.63321256612431" y1="10.564355669514327" y2="478.30326106812527" stroke="#00ffbf" style="stroke-width: 1; stroke-linecap: round;"></line><line x1="304.9834770963448" x2="84.4655068361177" y1="10.141123735400754" y2="488.4815788637952" stroke="#00ffc7" style="stroke-width: 1; stroke-linecap: round;"></line><line x1="296" x2="93.76746058064742" y1="10" y2="498.23253941935263" stroke="#00ffce" style="stroke-width: 1; stroke-linecap: round;"></line><line x1="287.0165229036553" x2="103.51842113620481" y1="10.141123735400754" y2="507.5344931638823" stroke="#00ffd5" style="stroke-width: 1; stroke-linecap: round;"></line><line x1="278.0419114146163" x2="113.69673893187482" y1="10.564355669514327" y2="516.3667874338757" stroke="#00ffdc" style="stroke-width: 1; stroke-linecap: round;"></line><line x1="269.08502239090507" x2="124.27981555679719" y1="11.269278123519086" y2="524.7098123273079" stroke="#00ffe3" style="stroke-width: 1; stroke-linecap: round;"></line><line x1="260.15469520060907" x2="135.2441539342906" y1="12.255195424059309" y2="532.5450442425247" stroke="#00ffea" style="stroke-width: 1; stroke-linecap: round;"></line><line x1="251.25974299849392" x2="146.56541049123865" y1="13.52113458979062" y2="539.8550870052704" stroke="#00fff1" style="stroke-width: 1; stroke-linecap: round;"></line><line x1="242.4089440284827" x2="158.2184492069095" y1="15.06584629159505" y2="546.623710492545" stroke="#00fff7" style="stroke-width: 1; stroke-linecap: round;"></line><line x1="233.61103296058872" x2="170.17739742120827" y1="16.887806085518264" y2="552.8358866675361" stroke="#00fffe" style="stroke-width: 1; stroke-linecap: round;"></line><line x1="224.8746922708514" x2="182.41570327845278" y1="18.98521591721152" y2="558.4778229456186" stroke="#00faff" style="stroke-width: 1; stroke-linecap: round;"></line><line x1="216.20854367278048" x2="194.90619467913248" y1="21.356005896394265" y2="563.536992817342" stroke="#00f4ff" style="stroke-width: 1; stroke-linecap: round;"></line><line x1="207.62113960876508" x2="207.62113960876508" y1="23.99783633958606" y2="568.002163660414" stroke="#00eeff" style="stroke-width: 1; stroke-linecap: round;"></line><line x1="199.12095480984664" x2="220.53230770990342" y1="26.908100079091525" y2="571.8634216789303" stroke="#00e8ff" style="stroke-width: 1; stroke-linecap: round;"></line><line x1="190.71637793218204" x2="233.6110329605889" y1="30.083925035960135" y2="575.1121939144818" stroke="#00e2ff" style="stroke-width: 1; stroke-linecap: round;"></line><line x1="182.41570327845284" x2="246.82827732008886" y1="33.52217705438136" y2="577.7412672802653" stroke="#00ddff" style="stroke-width: 1; stroke-linecap: round;"></line><line x1="174.2271226123893" x2="260.15469520060896" y1="37.219462994718356" y2="579.7448045759406" stroke="#00d8ff" style="stroke-width: 1; stroke-linecap: round;"></line><line x1="166.15871707448963" x2="273.56069862183637" y1="41.172134082126775" y2="581.1183574476746" stroke="#00d2ff" style="stroke-width: 1; stroke-linecap: round;"></line><line x1="158.21844920690938" x2="287.0165229036553" y1="45.376289507455056" y2="581.8588762645993" stroke="#00cdff" style="stroke-width: 1; stroke-linecap: round;"></line><line x1="150.41415509539394" x2="300.4922927511807" y1="49.82778027687206" y2="581.964716889755" stroke="#00c8ff" style="stroke-width: 1; stroke-linecap: round;"></line><line x1="142.7535366360071" x2="313.9580885853837" y1="54.522213306423595" y2="581.4356443304857" stroke="#00c3ff" style="stroke-width: 1; stroke-linecap: round;"></line><line x1="135.24415393429072" x2="327.38401297203905" y1="59.45495575747526" y2="580.2728332601814" stroke="#00bfff" style="stroke-width: 1; stroke-linecap: round;"></line><line x1="127.89341784435271" x2="340.7402570015061" y1="64.62113960876502" y2="578.4788654102094" stroke="#00baff" style="stroke-width: 1; stroke-linecap: round;"></line><line x1="120.7085826552487" x2="353.9971664719625" y1="70.01566646055258" y2="576.057723837825" stroke="#00b6ff" style="stroke-width: 1; stroke-linecap: round;"></line><line x1="113.69673893187465" x2="367.12530772914846" y1="75.63321256612437" y2="573.0147840827885" stroke="#00b2ff" style="stroke-width: 1; stroke-linecap: round;"></line><line x1="106.86480651743571" x2="380.09553301643894" y1="81.46823408568847" y2="569.3568022323225" stroke="#00adff" style="stroke-width: 1; stroke-linecap: round;"></line><line x1="100.21952770439512" x2="392.87904519015336" y1="87.51497255747623" y2="565.0918999209084" stroke="#00aaff" style="stroke-width: 1; stroke-linecap: round;"></line><line x1="93.76746058064742" x2="405.4474616564157" y1="93.7674605806474" y2="560.229546298228" stroke="#00a6ff" style="stroke-width: 1; stroke-linecap: round;"></line><line x1="87.51497255747626" x2="417.77287738761083" y1="100.21952770439509" y2="554.7805370052815" stroke="#00a2ff" style="stroke-width: 1; stroke-linecap: round;"></line><line x1="81.46823408568858" x2="429.827926878524" y1="106.86480651743557" y2="548.7569702053663" stroke="#009fff" style="stroke-width: 1; stroke-linecap: round;"></line><line x1="75.6332125661244" x2="441.58584490460623" y1="113.69673893187462" y2="542.1722197231279" stroke="#009bff" style="stroke-width: 1; stroke-linecap: round;"></line><line x1="70.01566646055261" x2="453.0205259474657" y1="120.70858265524862" y2="535.0409053513253" stroke="#0098ff" style="stroke-width: 1; stroke-linecap: round;"></line><line x1="64.62113960876505" x2="464.1065821556473" y1="127.89341784435265" y2="527.378860391235" stroke="#0095ff" style="stroke-width: 1; stroke-linecap: round;"></line><line x1="59.45495575747529" x2="474.81939971201166" y1="135.2441539342907" y2="519.2030964987623" stroke="#0092ff" style="stroke-width: 1; stroke-linecap: round;"></line><line x1="54.52221330642362" x2="485.1351934825645" y1="142.75353663600708" y2="510.5317659143114" stroke="#008fff" style="stroke-width: 1; stroke-linecap: round;"></line><line x1="49.82778027687203" x2="495.0310598254019" y1="150.414155095394" y2="501.384121160272" stroke="#008dff" style="stroke-width: 1; stroke-linecap: round;"></line><line x1="45.376289507455056" x2="504.48502744252374" y1="158.21844920690933" y2="491.7804722956049" stroke="#008aff" style="stroke-width: 1; stroke-linecap: round;"></line><line x1="41.1721340821268" x2="513.4761061616089" y1="166.1587170744896" y2="481.74214182243253" stroke="#0088ff" style="stroke-width: 1; stroke-linecap: round;"></line><line x1="37.21946299471841" x2="521.9843335394474" y1="174.22712261238928" y2="471.2914173447512" stroke="#0086ff" style="stroke-width: 1; stroke-linecap: round;"></line><line x1="33.5221770543813" x2="529.9908191835567" y1="182.41570327845284" y2="460.45150208437764" stroke="#0084ff" style="stroke-width: 1; stroke-linecap: round;"></line><line x1="30.083925035960192" x2="537.4777866935763" y1="190.71637793218196" y2="449.24646336399303" stroke="#0082ff" style="stroke-width: 1; stroke-linecap: round;"></line><line x1="26.908100079091525" x2="544.4286131293227" y1="199.12095480984655" y2="437.7011791716686" stroke="#0080ff" style="stroke-width: 1; stroke-linecap: round;"></line><line x1="23.997836339586115" x2="550.8278659178732" y1="207.62113960876502" y2="425.84128292551037" stroke="#007eff" style="stroke-width: 1; stroke-linecap: round;"></line><line x1="21.356005896394322" x2="556.6613371177373" y1="216.20854367278037" y2="413.69310656106114" stroke="#007dff" style="stroke-width: 1; stroke-linecap: round;"></line><line x1="18.985215917211576" x2="561.9160749640399" y1="224.87469227085126" y2="401.2836220678179" stroke="#007cff" style="stroke-width: 1; stroke-linecap: round;"></line><line x1="16.88780608551832" x2="566.5804126246779" y1="233.61103296058866" y2="388.6403816046708" stroke="#007bff" style="stroke-width: 1; stroke-linecap: round;"></line><line x1="15.06584629159505" x2="570.6439941036058" y1="242.40894402848278" y2="375.7914563272195" stroke="#007aff" style="stroke-width: 1; stroke-linecap: round;"></line><line x1="13.52113458979062" x2="574.0977972337355" y1="251.25974299849395" y2="362.76537406278896" stroke="#0079ff" style="stroke-width: 1; stroke-linecap: round;"></line><line x1="12.255195424059366" x2="576.9341537084049" y1="260.1546952006089" y2="349.5910559715173" stroke="#0078ff" style="stroke-width: 1; stroke-linecap: round;"></line><line x1="11.269278123519143" x2="579.1467661069355" y1="269.085022390905" y2="336.29775233414864" stroke="#0078ff" style="stroke-width: 1; stroke-linecap: round;"></line><line x1="10.564355669514327" x2="580.7307218764809" y1="278.0419114146162" y2="322.9149776090951" stroke="#0077ff" style="stroke-width: 1; stroke-linecap: round;"></line><line x1="10.141123735400754" x2="581.6825042391234" y1="287.0165229036553" y2="309.47244490295776" stroke="#0077ff" style="stroke-width: 1; stroke-linecap: round;"></line></svg>
