<svg height="592" version="1.1" width="592" xmlns="http://www.w3.org/2000/svg"><defs></defs><line x1="10" x2="10" y1="296.00000000000006" y2="296.00000000000006" stroke="#ff0000" style="stroke-width: 1; stroke-linecap: round;"></line><line x1="10.141123735400754" x2="304.9834770963447" y1="304.9834770963447" y2="581.8588762645993" stroke="#ffbd00" style="stroke-width: 1; stroke-linecap: round;"></line><line x1="10.564355669514327" x2="581.4356443304857" y1="313.9580885853837" y2="278.0419114146164" stroke="#0077ff" style="stroke-width: 1; stroke-linecap: round;"></line><line x1="11.269278123519143" x2="269.08502239090507" y1="322.9149776090951" y2="11.269278123519086" stroke="#ffbd00" style="stroke-width: 1; stroke-linecap: round;"></line><line x1="12.255195424059366" x2="12.255195424059366" y1="331.8453047993911" y2="331.8453047993911" stroke="#ff0000" style="stroke-width: 1; stroke-linecap: round;"></line><line x1="13.52113458979062" x2="340.7402570015061" y1="340.74025700150605" y2="578.4788654102094" stroke="#ffbd00" style="stroke-width: 1; stroke-linecap: round;"></line><line x1="15.06584629159505" x2="576.9341537084049" y1="349.5910559715172" y2="242.4089440284827" stroke="#0077ff" style="stroke-width: 1; stroke-linecap: round;"></line><line x1="16.887806085518264" x2="233.61103296058872" y1="358.3889670394112" y2="16.887806085518264" stroke="#ffbd00" style="stroke-width: 1; stroke-linecap: round;"></line><line x1="18.98521591721152" x2="18.98521591721152" y1="367.12530772914846" y2="367.12530772914846" stroke="#ff0000" style="stroke-width: 1; stroke-linecap: round;"></line><line x1="21.356005896394322" x2="375.7914563272195" y1="375.79145632721963" y2="570.6439941036058" stroke="#ffbd00" style="stroke-width: 1; stroke-linecap: round;"></line><line x1="23.997836339586115" x2="568.0021636604139" y1="384.378860391235" y2="207.6211396087649" stroke="#0077ff" style="stroke-width: 1; stroke-linecap: round;"></line><line x1="26.908100079091525" x2="199.12095480984664" y1="392.8790451901534" y2="26.908100079091525" stroke="#ffbd00" style="stroke-width: 1; stroke-linecap: round;"></line><line x1="30.08392503596008" x2="30.08392503596008" y1="401.2836220678178" y2="401.2836220678178" stroke="#ff0000" style="stroke-width: 1; stroke-linecap: round;"></line><line x1="33.52217705438147" x2="409.5842967215473" y1="409.5842967215474" y2="558.4778229456185" stroke="#ffbd00" style="stroke-width: 1; stroke-linecap: round;"></line><line x1="37.21946299471841" x2="554.7805370052815" y1="417.7728773876107" y2="174.22712261238928" stroke="#0077ff" style="stroke-width: 1; stroke-linecap: round;"></line><line x1="41.1721340821268" x2="166.15871707448963" y1="425.8412829255104" y2="41.172134082126775" stroke="#ffbd00" style="stroke-width: 1; stroke-linecap: round;"></line><line x1="45.376289507455056" x2="45.376289507455056" y1="433.7815507930907" y2="433.7815507930907" stroke="#ff0000" style="stroke-width: 1; stroke-linecap: round;"></line><line x1="49.82778027687215" x2="441.58584490460623" y1="441.58584490460623" y2="542.1722197231279" stroke="#ffbd00" style="stroke-width: 1; stroke-linecap: round;"></line><line x1="54.52221330642368" x2="537.4777866935764" y1="449.24646336399303" y2="142.75353663600708" stroke="#0077ff" style="stroke-width: 1; stroke-linecap: round;"></line><line x1="59.45495575747529" x2="135.24415393429072" y1="456.7558460657093" y2="59.45495575747526" stroke="#ffbd00" style="stroke-width: 1; stroke-linecap: round;"></line><line x1="64.62113960876505" x2="64.62113960876505" y1="464.10658215564735" y2="464.10658215564735" stroke="#ff0000" style="stroke-width: 1; stroke-linecap: round;"></line><line x1="70.01566646055261" x2="471.29141734475127" y1="471.2914173447514" y2="521.9843335394474" stroke="#ffbd00" style="stroke-width: 1; stroke-linecap: round;"></line><line x1="75.63321256612431" x2="516.3667874338757" y1="478.30326106812527" y2="113.69673893187476" stroke="#0077ff" style="stroke-width: 1; stroke-linecap: round;"></line><line x1="81.46823408568858" x2="106.86480651743571" y1="485.13519348256443" y2="81.46823408568847" stroke="#ffbd00" style="stroke-width: 1; stroke-linecap: round;"></line><line x1="87.51497255747626" x2="87.51497255747626" y1="491.7804722956049" y2="491.7804722956049" stroke="#ff0000" style="stroke-width: 1; stroke-linecap: round;"></line><line x1="93.76746058064742" x2="498.23253941935263" y1="498.23253941935263" y2="498.2325394193526" stroke="#ffbd00" style="stroke-width: 1; stroke-linecap: round;"></line><line x1="100.21952770439512" x2="491.7804722956049" y1="504.4850274425238" y2="87.51497255747628" stroke="#0077ff" style="stroke-width: 1; stroke-linecap: round;"></line><line x1="106.86480651743551" x2="81.46823408568858" y1="510.5317659143114" y2="106.86480651743557" stroke="#ffbd00" style="stroke-width: 1; stroke-linecap: round;"></line><line x1="113.69673893187482" x2="113.69673893187482" y1="516.3667874338757" y2="516.3667874338757" stroke="#ff0000" style="stroke-width: 1; stroke-linecap: round;"></line><line x1="120.7085826552487" x2="521.9843335394474" y1="521.9843335394474" y2="471.2914173447512" stroke="#ffbd00" style="stroke-width: 1; stroke-linecap: round;"></line><line x1="127.89341784435271" x2="464.1065821556473" y1="527.378860391235" y2="64.62113960876502" stroke="#0077ff" style="stroke-width: 1; stroke-linecap: round;"></line><line x1="135.2441539342906" x2="59.45495575747529" y1="532.5450442425247" y2="135.2441539342907" stroke="#ffbd00" style="stroke-width: 1; stroke-linecap: round;"></line><line x1="142.75353663600703" x2="142.75353663600703" y1="537.4777866935764" y2="537.4777866935764" stroke="#ff0000" style="stroke-width: 1; stroke-linecap: round;"></line><line x1="150.41415509539394" x2="542.1722197231279" y1="542.1722197231279" y2="441.5858449046062" stroke="#ffbd00" style="stroke-width: 1; stroke-linecap: round;"></line><line x1="158.2184492069095" x2="433.78155079309045" y1="546.623710492545" y2="45.37628950745494" stroke="#0077ff" style="stroke-width: 1; stroke-linecap: round;"></line><line x1="166.15871707448963" x2="41.1721340821268" y1="550.8278659178732" y2="166.1587170744896" stroke="#ffbd00" style="stroke-width: 1; stroke-linecap: round;"></line><line x1="174.22712261238922" x2="174.22712261238922" y1="554.7805370052815" y2="554.7805370052815" stroke="#ff0000" style="stroke-width: 1; stroke-linecap: round;"></line><line x1="182.41570327845278" x2="558.4778229456185" y1="558.4778229456186" y2="409.5842967215473" stroke="#ffbd00" style="stroke-width: 1; stroke-linecap: round;"></line><line x1="190.71637793218218" x2="401.283622067818" y1="561.9160749640399" y2="30.083925035960135" stroke="#0077ff" style="stroke-width: 1; stroke-linecap: round;"></line><line x1="199.12095480984667" x2="26.908100079091525" y1="565.0918999209084" y2="199.12095480984655" stroke="#ffbd00" style="stroke-width: 1; stroke-linecap: round;"></line><line x1="207.62113960876508" x2="207.62113960876508" y1="568.002163660414" y2="568.002163660414" stroke="#ff0000" style="stroke-width: 1; stroke-linecap: round;"></line><line x1="216.20854367278048" x2="570.6439941036058" y1="570.6439941036058" y2="375.7914563272195" stroke="#ffbd00" style="stroke-width: 1; stroke-linecap: round;"></line><line x1="224.8746922708515" x2="367.1253077291485" y1="573.0147840827885" y2="18.98521591721152" stroke="#0077ff" style="stroke-width: 1; stroke-linecap: round;"></line><line x1="233.6110329605889" x2="16.88780608551832" y1="575.1121939144818" y2="233.61103296058866" stroke="#ffbd00" style="stroke-width: 1; stroke-linecap: round;"></line><line x1="242.40894402848284" x2="242.40894402848284" y1="576.9341537084049" y2="576.9341537084049" stroke="#ff0000" style="stroke-width: 1; stroke-linecap: round;"></line><line x1="251.25974299849392" x2="578.4788654102094" y1="578.4788654102094" y2="340.74025700150605" stroke="#ffbd00" style="stroke-width: 1; stroke-linecap: round;"></line><line x1="260.15469520060896" x2="331.84530479939093" y1="579.7448045759406" y2="12.255195424059309" stroke="#0077ff" style="stroke-width: 1; stroke-linecap: round;"></line><line x1="269.0850223909049" x2="11.269278123519143" y1="580.7307218764809" y2="269.085022390905" stroke="#ffbd00" style="stroke-width: 1; stroke-linecap: round;"></line><line x1="278.0419114146164" x2="278.0419114146164" y1="581.4356443304857" y2="581.4356443304857" stroke="#ff0000" style="stroke-width: 1; stroke-linecap: round;"></line><line x1="287.0165229036553" x2="581.8588762645993" y1="581.8588762645993" y2="304.98347709634476" stroke="#ffbd00" style="stroke-width: 1; stroke-linecap: round;"></line><line x1="296" x2="296" y1="582" y2="10" stroke="#0077ff" style="stroke-width: 1; stroke-linecap: round;"></line><line x1="304.9834770963447" x2="10.141123735400754" y1="581.8588762645993" y2="304.9834770963447" stroke="#ffbd00" style="stroke-width: 1; stroke-linecap: round;"></line><line x1="313.9580885853837" x2="313.9580885853837" y1="581.4356443304857" y2="581.4356443304857" stroke="#ff0000" style="stroke-width: 1; stroke-linecap: round;"></line><line x1="322.9149776090951" x2="580.7307218764809" y1="580.7307218764809" y2="269.0850223909049" stroke="#ffbd00" style="stroke-width: 1; stroke-linecap: round;"></line><line x1="331.845304799391" x2="260.15469520060907" y1="579.7448045759406" y2="12.255195424059309" stroke="#0077ff" style="stroke-width: 1; stroke-linecap: round;"></line><line x1="340.7402570015061" x2="13.52113458979062" y1="578.4788654102094" y2="340.74025700150605" stroke="#ffbd00" style="stroke-width: 1; stroke-linecap: round;"></line><line x1="349.59105597151733" x2="349.59105597151733" y1="576.9341537084049" y2="576.9341537084049" stroke="#ff0000" style="stroke-width: 1; stroke-linecap: round;"></line><line x1="358.38896703941117" x2="575.1121939144817" y1="575.1121939144818" y2="233.61103296058872" stroke="#ffbd00" style="stroke-width: 1; stroke-linecap: round;"></line><line x1="367.12530772914846" x2="224.8746922708514" y1="573.0147840827885" y2="18.98521591721152" stroke="#0077ff" style="stroke-width: 1; stroke-linecap: round;"></line><line x1="375.7914563272195" x2="21.356005896394322" y1="570.6439941036058" y2="375.79145632721963" stroke="#ffbd00" style="stroke-width: 1; stroke-linecap: round;"></line><line x1="384.378860391235" x2="384.378860391235" y1="568.0021636604139" y2="568.0021636604139" stroke="#ff0000" style="stroke-width: 1; stroke-linecap: round;"></line><line x1="392.87904519015336" x2="565.0918999209084" y1="565.0918999209084" y2="199.1209548098466" stroke="#ffbd00" style="stroke-width: 1; stroke-linecap: round;"></line><line x1="401.2836220678179" x2="190.71637793218204" y1="561.9160749640399" y2="30.083925035960135" stroke="#0077ff" style="stroke-width: 1; stroke-linecap: round;"></line><line x1="409.5842967215473" x2="33.52217705438147" y1="558.4778229456185" y2="409.5842967215474" stroke="#ffbd00" style="stroke-width: 1; stroke-linecap: round;"></line><line x1="417.77287738761083" x2="417.77287738761083" y1="554.7805370052815" y2="554.7805370052815" stroke="#ff0000" style="stroke-width: 1; stroke-linecap: round;"></line><line x1="425.8412829255104" x2="550.8278659178733" y1="550.8278659178732" y2="166.15871707448974" stroke="#ffbd00" style="stroke-width: 1; stroke-linecap: round;"></line><line x1="433.7815507930907" x2="158.21844920690938" y1="546.6237104925449" y2="45.376289507455056" stroke="#0077ff" style="stroke-width: 1; stroke-linecap: round;"></line><line x1="441.58584490460623" x2="49.82778027687215" y1="542.1722197231279" y2="441.58584490460623" stroke="#ffbd00" style="stroke-width: 1; stroke-linecap: round;"></line><line x1="449.2464633639931" x2="449.2464633639931" y1="537.4777866935763" y2="537.4777866935763" stroke="#ff0000" style="stroke-width: 1; stroke-linecap: round;"></line><line x1="456.7558460657093" x2="532.5450442425247" y1="532.5450442425247" y2="135.2441539342907" stroke="#ffbd00" style="stroke-width: 1; stroke-linecap: round;"></line><line x1="464.1065821556473" x2="127.89341784435271" y1="527.378860391235" y2="64.62113960876502" stroke="#0077ff" style="stroke-width: 1; stroke-linecap: round;"></line><line x1="471.29141734475127" x2="70.01566646055261" y1="521.9843335394474" y2="471.2914173447514" stroke="#ffbd00" style="stroke-width: 1; stroke-linecap: round;"></line><line x1="478.30326106812527" x2="478.30326106812527" y1="516.3667874338757" y2="516.3667874338757" stroke="#ff0000" style="stroke-width: 1; stroke-linecap: round;"></line><line x1="485.1351934825645" x2="510.53176591431145" y1="510.5317659143114" y2="106.86480651743554" stroke="#ffbd00" style="stroke-width: 1; stroke-linecap: round;"></line><line x1="491.7804722956049" x2="100.21952770439512" y1="504.4850274425237" y2="87.51497255747623" stroke="#0077ff" style="stroke-width: 1; stroke-linecap: round;"></line><line x1="498.23253941935263" x2="93.76746058064742" y1="498.2325394193526" y2="498.23253941935263" stroke="#ffbd00" style="stroke-width: 1; stroke-linecap: round;"></line><line x1="504.48502744252374" x2="504.48502744252374" y1="491.7804722956049" y2="491.7804722956049" stroke="#ff0000" style="stroke-width: 1; stroke-linecap: round;"></line><line x1="510.53176591431145" x2="485.1351934825645" y1="485.13519348256443" y2="81.46823408568861" stroke="#ffbd00" style="stroke-width: 1; stroke-linecap: round;"></line><line x1="516.3667874338757" x2="75.6332125661244" y1="478.30326106812527" y2="113.69673893187462" stroke="#0077ff" style="stroke-width: 1; stroke-linecap: round;"></line><line x1="521.9843335394474" x2="120.7085826552487" y1="471.2914173447512" y2="521.9843335394474" stroke="#ffbd00" style="stroke-width: 1; stroke-linecap: round;"></line><line x1="527.378860391235" x2="527.378860391235" y1="464.1065821556473" y2="464.1065821556473" stroke="#ff0000" style="stroke-width: 1; stroke-linecap: round;"></line><line x1="532.5450442425247" x2="456.7558460657093" y1="456.7558460657093" y2="59.45495575747532" stroke="#ffbd00" style="stroke-width: 1; stroke-linecap: round;"></line><line x1="537.4777866935763" x2="54.52221330642362" y1="449.24646336399303" y2="142.75353663600708" stroke="#0077ff" style="stroke-width: 1; stroke-linecap: round;"></line><line x1="542.1722197231279" x2="150.41415509539394" y1="441.5858449046062" y2="542.1722197231279" stroke="#ffbd00" style="stroke-width: 1; stroke-linecap: round;"></line><line x1="546.6237104925449" x2="546.6237104925449" y1="433.7815507930906" y2="433.7815507930906" stroke="#ff0000" style="stroke-width: 1; stroke-linecap: round;"></line><line x1="550.8278659178732" x2="425.8412829255103" y1="425.84128292551037" y2="41.172134082126746" stroke="#ffbd00" style="stroke-width: 1; stroke-linecap: round;"></line><line x1="554.7805370052815" x2="37.21946299471841" y1="417.7728773876107" y2="174.22712261238928" stroke="#0077ff" style="stroke-width: 1; stroke-linecap: round;"></line><line x1="558.4778229456185" x2="182.41570327845278" y1="409.5842967215473" y2="558.4778229456186" stroke="#ffbd00" style="stroke-width: 1; stroke-linecap: round;"></line><line x1="561.9160749640399" x2="561.9160749640399" y1="401.2836220678179" y2="401.2836220678179" stroke="#ff0000" style="stroke-width: 1; stroke-linecap: round;"></line><line x1="565.0918999209084" x2="392.8790451901534" y1="392.8790451901534" y2="26.908100079091525" stroke="#ffbd00" style="stroke-width: 1; stroke-linecap: round;"></line><line x1="568.0021636604139" x2="23.997836339586115" y1="384.378860391235" y2="207.62113960876502" stroke="#0077ff" style="stroke-width: 1; stroke-linecap: round;"></line><line x1="570.6439941036058" x2="216.20854367278048" y1="375.7914563272195" y2="570.6439941036058" stroke="#ffbd00" style="stroke-width: 1; stroke-linecap: round;"></line><line x1="573.0147840827885" x2="573.0147840827885" y1="367.1253077291485" y2="367.1253077291485" stroke="#ff0000" style="stroke-width: 1; stroke-linecap: round;"></line><line x1="575.1121939144818" x2="358.3889670394113" y1="358.3889670394111" y2="16.887806085518264" stroke="#ffbd00" style="stroke-width: 1; stroke-linecap: round;"></line><line x1="576.9341537084049" x2="15.06584629159505" y1="349.5910559715173" y2="242.40894402848278" stroke="#0077ff" style="stroke-width: 1; stroke-linecap: round;"></line><line x1="578.4788654102094" x2="251.25974299849392" y1="340.74025700150605" y2="578.4788654102094" stroke="#ffbd00" style="stroke-width: 1; stroke-linecap: round;"></line><line x1="579.7448045759406" x2="579.7448045759406" y1="331.8453047993911" y2="331.8453047993911" stroke="#ff0000" style="stroke-width: 1; stroke-linecap: round;"></line><line x1="580.7307218764809" x2="322.91497760909505" y1="322.9149776090951" y2="11.269278123519143" stroke="#ffbd00" style="stroke-width: 1; stroke-linecap: round;"></line><line x1="581.4356443304857" x2="10.564355669514327" y1="313.9580885853836" y2="278.0419114146162" stroke="#0077ff" style="stroke-width: 1; stroke-linecap: round;"></line><line x1="581.8588762645993" x2="287.0165229036553" y1="304.98347709634476" y2="581.8588762645993" stroke="#ffbd00" style="stroke-width: 1; stroke-linecap: round;"></line><line x1="582" x2="582" y1="296" y2="296" stroke="#ff0000" style="stroke-width: 1; stroke-linecap: round;"></line><line x1="581.8588762645993" x2="287.0165229036553" y1="287.01652290365524" y2="10.141123735400754" stroke="#ffbd00" style="stroke-width: 1; stroke-linecap: round;"></line><line x1="581.4356443304857" x2="10.564355669514327" y1="278.0419114146164" y2="313.9580885853837" stroke="#0077ff" style="stroke-width: 1; stroke-linecap: round;"></line><line x1="580.7307218764809" x2="322.9149776090951" y1="269.0850223909049" y2="580.7307218764809" stroke="#ffbd00" style="stroke-width: 1; stroke-linecap: round;"></line><line x1="579.7448045759406" x2="579.7448045759406" y1="260.1546952006089" y2="260.1546952006089" stroke="#ff0000" style="stroke-width: 1; stroke-linecap: round;"></line><line x1="578.4788654102094" x2="251.25974299849392" y1="251.25974299849398" y2="13.52113458979062" stroke="#ffbd00" style="stroke-width: 1; stroke-linecap: round;"></line><line x1="576.9341537084049" x2="15.06584629159505" y1="242.4089440284827" y2="349.5910559715172" stroke="#0077ff" style="stroke-width: 1; stroke-linecap: round;"></line><line x1="575.1121939144817" x2="358.38896703941117" y1="233.61103296058872" y2="575.1121939144818" stroke="#ffbd00" style="stroke-width: 1; stroke-linecap: round;"></line><line x1="573.0147840827885" x2="573.0147840827885" y1="224.87469227085148" y2="224.87469227085148" stroke="#ff0000" style="stroke-width: 1; stroke-linecap: round;"></line><line x1="570.6439941036057" x2="216.20854367278048" y1="216.20854367278037" y2="21.356005896394265" stroke="#ffbd00" style="stroke-width: 1; stroke-linecap: round;"></line><line x1="568.0021636604139" x2="23.997836339586115" y1="207.6211396087649" y2="384.378860391235" stroke="#0077ff" style="stroke-width: 1; stroke-linecap: round;"></line><line x1="565.0918999209084" x2="392.87904519015336" y1="199.1209548098466" y2="565.0918999209084" stroke="#ffbd00" style="stroke-width: 1; stroke-linecap: round;"></line><line x1="561.9160749640398" x2="561.9160749640398" y1="190.71637793218198" y2="190.71637793218198" stroke="#ff0000" style="stroke-width: 1; stroke-linecap: round;"></line><line x1="558.4778229456186" x2="182.41570327845284" y1="182.41570327845284" y2="33.52217705438136" stroke="#ffbd00" style="stroke-width: 1; stroke-linecap: round;"></line><line x1="554.7805370052815" x2="37.21946299471841" y1="174.22712261238928" y2="417.7728773876107" stroke="#0077ff" style="stroke-width: 1; stroke-linecap: round;"></line><line x1="550.8278659178733" x2="425.8412829255104" y1="166.15871707448974" y2="550.8278659178732" stroke="#ffbd00" style="stroke-width: 1; stroke-linecap: round;"></line><line x1="546.623710492545" x2="546.623710492545" y1="158.21844920690953" y2="158.21844920690953" stroke="#ff0000" style="stroke-width: 1; stroke-linecap: round;"></line><line x1="542.1722197231279" x2="150.41415509539394" y1="150.41415509539382" y2="49.82778027687206" stroke="#ffbd00" style="stroke-width: 1; stroke-linecap: round;"></line><line x1="537.4777866935764" x2="54.52221330642368" y1="142.75353663600708" y2="449.24646336399303" stroke="#0077ff" style="stroke-width: 1; stroke-linecap: round;"></line><line x1="532.5450442425247" x2="456.7558460657093" y1="135.2441539342907" y2="532.5450442425247" stroke="#ffbd00" style="stroke-width: 1; stroke-linecap: round;"></line><line x1="527.378860391235" x2="527.378860391235" y1="127.89341784435268" y2="127.89341784435268" stroke="#ff0000" style="stroke-width: 1; stroke-linecap: round;"></line><line x1="521.9843335394474" x2="120.7085826552487" y1="120.70858265524879" y2="70.01566646055258" stroke="#ffbd00" style="stroke-width: 1; stroke-linecap: round;"></line><line x1="516.3667874338757" x2="75.63321256612431" y1="113.69673893187476" y2="478.30326106812527" stroke="#0077ff" style="stroke-width: 1; stroke-linecap: round;"></line><line x1="510.53176591431145" x2="485.1351934825645" y1="106.86480651743554" y2="510.5317659143114" stroke="#ffbd00" style="stroke-width: 1; stroke-linecap: round;"></line><line x1="504.48502744252374" x2="504.48502744252374" y1="100.21952770439509" y2="100.21952770439509" stroke="#ff0000" style="stroke-width: 1; stroke-linecap: round;"></line><line x1="498.23253941935263" x2="93.76746058064742" y1="93.76746058064742" y2="93.7674605806474" stroke="#ffbd00" style="stroke-width: 1; stroke-linecap: round;"></line><line x1="491.7804722956049" x2="100.21952770439512" y1="87.51497255747628" y2="504.4850274425238" stroke="#0077ff" style="stroke-width: 1; stroke-linecap: round;"></line><line x1="485.1351934825645" x2="510.53176591431145" y1="81.46823408568861" y2="485.13519348256443" stroke="#ffbd00" style="stroke-width: 1; stroke-linecap: round;"></line><line x1="478.30326106812527" x2="478.30326106812527" y1="75.63321256612429" y2="75.63321256612429" stroke="#ff0000" style="stroke-width: 1; stroke-linecap: round;"></line><line x1="471.2914173447512" x2="70.01566646055261" y1="70.01566646055252" y2="120.70858265524862" stroke="#ffbd00" style="stroke-width: 1; stroke-linecap: round;"></line><line x1="464.1065821556473" x2="127.89341784435271" y1="64.62113960876502" y2="527.378860391235" stroke="#0077ff" style="stroke-width: 1; stroke-linecap: round;"></line><line x1="456.7558460657093" x2="532.5450442425247" y1="59.45495575747532" y2="456.7558460657093" stroke="#ffbd00" style="stroke-width: 1; stroke-linecap: round;"></line><line x1="449.2464633639929" x2="449.2464633639929" y1="54.522213306423595" y2="54.522213306423595" stroke="#ff0000" style="stroke-width: 1; stroke-linecap: round;"></line><line x1="441.5858449046062" x2="49.82778027687203" y1="49.82778027687212" y2="150.414155095394" stroke="#ffbd00" style="stroke-width: 1; stroke-linecap: round;"></line><line x1="433.78155079309045" x2="158.2184492069095" y1="45.37628950745494" y2="546.623710492545" stroke="#0077ff" style="stroke-width: 1; stroke-linecap: round;"></line><line x1="425.8412829255103" x2="550.8278659178732" y1="41.172134082126746" y2="425.84128292551037" stroke="#ffbd00" style="stroke-width: 1; stroke-linecap: round;"></line><line x1="417.7728773876107" x2="417.7728773876107" y1="37.21946299471841" y2="37.21946299471841" stroke="#ff0000" style="stroke-width: 1; stroke-linecap: round;"></line><line x1="409.58429672154716" x2="33.5221770543813" y1="33.52217705438136" y2="182.41570327845284" stroke="#ffbd00" style="stroke-width: 1; stroke-linecap: round;"></line><line x1="401.283622067818" x2="190.71637793218218" y1="30.083925035960135" y2="561.9160749640399" stroke="#0077ff" style="stroke-width: 1; stroke-linecap: round;"></line><line x1="392.8790451901534" x2="565.0918999209084" y1="26.908100079091525" y2="392.8790451901534" stroke="#ffbd00" style="stroke-width: 1; stroke-linecap: round;"></line><line x1="384.3788603912351" x2="384.3788603912351" y1="23.997836339586115" y2="23.997836339586115" stroke="#ff0000" style="stroke-width: 1; stroke-linecap: round;"></line><line x1="375.7914563272197" x2="21.356005896394322" y1="21.356005896394322" y2="216.20854367278037" stroke="#ffbd00" style="stroke-width: 1; stroke-linecap: round;"></line><line x1="367.1253077291485" x2="224.8746922708515" y1="18.98521591721152" y2="573.0147840827885" stroke="#0077ff" style="stroke-width: 1; stroke-linecap: round;"></line><line x1="358.3889670394113" x2="575.1121939144818" y1="16.887806085518264" y2="358.3889670394111" stroke="#ffbd00" style="stroke-width: 1; stroke-linecap: round;"></line><line x1="349.59105597151733" x2="349.59105597151733" y1="15.06584629159505" y2="15.06584629159505" stroke="#ff0000" style="stroke-width: 1; stroke-linecap: round;"></line><line x1="340.74025700150605" x2="13.52113458979062" y1="13.52113458979062" y2="251.25974299849395" stroke="#ffbd00" style="stroke-width: 1; stroke-linecap: round;"></line><line x1="331.84530479939093" x2="260.15469520060896" y1="12.255195424059309" y2="579.7448045759406" stroke="#0077ff" style="stroke-width: 1; stroke-linecap: round;"></line><line x1="322.91497760909505" x2="580.7307218764809" y1="11.269278123519143" y2="322.9149776090951" stroke="#ffbd00" style="stroke-width: 1; stroke-linecap: round;"></line><line x1="313.95808858538373" x2="313.95808858538373" y1="10.564355669514327" y2="10.564355669514327" stroke="#ff0000" style="stroke-width: 1; stroke-linecap: round;"></line><line x1="304.9834770963448" x2="10.141123735400754" y1="10.141123735400754" y2="287.0165229036553" stroke="#ffbd00" style="stroke-width: 1; stroke-linecap: round;"></line><line x1="296" x2="296" y1="10" y2="582" stroke="#0077ff" style="stroke-width: 1; stroke-linecap: round;"></line><line x1="287.0165229036553" x2="581.8588762645993" y1="10.141123735400754" y2="287.01652290365524" stroke="#ffbd00" style="stroke-width: 1; stroke-linecap: round;"></line><line x1="278.0419114146163" x2="278.0419114146163" y1="10.564355669514327" y2="10.564355669514327" stroke="#ff0000" style="stroke-width: 1; stroke-linecap: round;"></line><line x1="269.08502239090507" x2="11.269278123519143" y1="11.269278123519086" y2="322.9149776090951" stroke="#ffbd00" style="stroke-width: 1; stroke-linecap: round;"></line><line x1="260.15469520060907" x2="331.845304799391" y1="12.255195424059309" y2="579.7448045759406" stroke="#0077ff" style="stroke-width: 1; stroke-linecap: round;"></line><line x1="251.25974299849392" x2="578.4788654102094" y1="13.52113458979062" y2="251.25974299849398" stroke="#ffbd00" style="stroke-width: 1; stroke-linecap: round;"></line><line x1="242.4089440284827" x2="242.4089440284827" y1="15.06584629159505" y2="15.06584629159505" stroke="#ff0000" style="stroke-width: 1; stroke-linecap: round;"></line><line x1="233.61103296058872" x2="16.887806085518264" y1="16.887806085518264" y2="358.3889670394112" stroke="#ffbd00" style="stroke-width: 1; stroke-linecap: round;"></line><line x1="224.8746922708514" x2="367.12530772914846" y1="18.98521591721152" y2="573.0147840827885" stroke="#0077ff" style="stroke-width: 1; stroke-linecap: round;"></line><line x1="216.20854367278048" x2="570.6439941036057" y1="21.356005896394265" y2="216.20854367278037" stroke="#ffbd00" style="stroke-width: 1; stroke-linecap: round;"></line><line x1="207.62113960876508" x2="207.62113960876508" y1="23.99783633958606" y2="23.99783633958606" stroke="#ff0000" style="stroke-width: 1; stroke-linecap: round;"></line><line x1="199.12095480984664" x2="26.908100079091525" y1="26.908100079091525" y2="392.8790451901534" stroke="#ffbd00" style="stroke-width: 1; stroke-linecap: round;"></line><line x1="190.71637793218204" x2="401.2836220678179" y1="30.083925035960135" y2="561.9160749640399" stroke="#0077ff" style="stroke-width: 1; stroke-linecap: round;"></line><line x1="182.41570327845284" x2="558.4778229456186" y1="33.52217705438136" y2="182.41570327845284" stroke="#ffbd00" style="stroke-width: 1; stroke-linecap: round;"></line><line x1="174.2271226123893" x2="174.2271226123893" y1="37.219462994718356" y2="37.219462994718356" stroke="#ff0000" style="stroke-width: 1; stroke-linecap: round;"></line><line x1="166.15871707448963" x2="41.1721340821268" y1="41.172134082126775" y2="425.8412829255104" stroke="#ffbd00" style="stroke-width: 1; stroke-linecap: round;"></line><line x1="158.21844920690938" x2="433.7815507930907" y1="45.376289507455056" y2="546.6237104925449" stroke="#0077ff" style="stroke-width: 1; stroke-linecap: round;"></line><line x1="150.41415509539394" x2="542.1722197231279" y1="49.82778027687206" y2="150.41415509539382" stroke="#ffbd00" style="stroke-width: 1; stroke-linecap: round;"></line><line x1="142.7535366360071" x2="142.7535366360071" y1="54.522213306423595" y2="54.522213306423595" stroke="#ff0000" style="stroke-width: 1; stroke-linecap: round;"></line><line x1="135.24415393429072" x2="59.45495575747529" y1="59.45495575747526" y2="456.7558460657093" stroke="#ffbd00" style="stroke-width: 1; stroke-linecap: round;"></line><line x1="127.89341784435271" x2="464.1065821556473" y1="64.62113960876502" y2="527.378860391235" stroke="#0077ff" style="stroke-width: 1; stroke-linecap: round;"></line><line x1="120.7085826552487" x2="521.9843335394474" y1="70.01566646055258" y2="120.70858265524879" stroke="#ffbd00" style="stroke-width: 1; stroke-linecap: round;"></line><line x1="113.69673893187465" x2="113.69673893187465" y1="75.63321256612437" y2="75.63321256612437" stroke="#ff0000" style="stroke-width: 1; stroke-linecap: round;"></line><line x1="106.86480651743571" x2="81.46823408568858" y1="81.46823408568847" y2="485.13519348256443" stroke="#ffbd00" style="stroke-width: 1; stroke-linecap: round;"></line><line x1="100.21952770439512" x2="491.7804722956049" y1="87.51497255747623" y2="504.4850274425237" stroke="#0077ff" style="stroke-width: 1; stroke-linecap: round;"></line><line x1="93.76746058064742" x2="498.23253941935263" y1="93.7674605806474" y2="93.76746058064742" stroke="#ffbd00" style="stroke-width: 1; stroke-linecap: round;"></line><line x1="87.51497255747626" x2="87.51497255747626" y1="100.21952770439509" y2="100.21952770439509" stroke="#ff0000" style="stroke-width: 1; stroke-linecap: round;"></line><line x1="81.46823408568858" x2="106.86480651743551" y1="106.86480651743557" y2="510.5317659143114" stroke="#ffbd00" style="stroke-width: 1; stroke-linecap: round;"></line><line x1="75.6332125661244" x2="516.3667874338757" y1="113.69673893187462" y2="478.30326106812527" stroke="#0077ff" style="stroke-width: 1; stroke-linecap: round;"></line><line x1="70.01566646055261" x2="471.2914173447512" y1="120.70858265524862" y2="70.01566646055252" stroke="#ffbd00" style="stroke-width: 1; stroke-linecap: round;"></line><line x1="64.62113960876505" x2="64.62113960876505" y1="127.89341784435265" y2="127.89341784435265" stroke="#ff0000" style="stroke-width: 1; stroke-linecap: round;"></line><line x1="59.45495575747529" x2="135.2441539342906" y1="135.2441539342907" y2="532.5450442425247" stroke="#ffbd00" style="stroke-width: 1; stroke-linecap: round;"></line><line x1="54.52221330642362" x2="537.4777866935763" y1="142.75353663600708" y2="449.24646336399303" stroke="#0077ff" style="stroke-width: 1; stroke-linecap: round;"></line><line x1="49.82778027687203" x2="441.5858449046062" y1="150.414155095394" y2="49.82778027687212" stroke="#ffbd00" style="stroke-width: 1; stroke-linecap: round;"></line><line x1="45.376289507455056" x2="45.376289507455056" y1="158.21844920690933" y2="158.21844920690933" stroke="#ff0000" style="stroke-width: 1; stroke-linecap: round;"></line><line x1="41.1721340821268" x2="166.15871707448963" y1="166.1587170744896" y2="550.8278659178732" stroke="#ffbd00" style="stroke-width: 1; stroke-linecap: round;"></line><line x1="37.21946299471841" x2="554.7805370052815" y1="174.22712261238928" y2="417.7728773876107" stroke="#0077ff" style="stroke-width: 1; stroke-linecap: round;"></line><line x1="33.5221770543813" x2="409.58429672154716" y1="182.41570327845284" y2="33.52217705438136" stroke="#ffbd00" style="stroke-width: 1; stroke-linecap: round;"></line><line x1="30.083925035960192" x2="30.083925035960192" y1="190.71637793218196" y2="190.71637793218196" stroke="#ff0000" style="stroke-width: 1; stroke-linecap: round;"></line><line x1="26.908100079091525" x2="199.12095480984667" y1="199.12095480984655" y2="565.0918999209084" stroke="#ffbd00" style="stroke-width: 1; stroke-linecap: round;"></line><line x1="23.997836339586115" x2="568.0021636604139" y1="207.62113960876502" y2="384.378860391235" stroke="#0077ff" style="stroke-width: 1; stroke-linecap: round;"></line><line x1="21.356005896394322" x2="375.7914563272197" y1="216.20854367278037" y2="21.356005896394322" stroke="#ffbd00" style="stroke-width: 1; stroke-linecap: round;"></line><line x1="18.985215917211576" x2="18.985215917211576" y1="224.87469227085126" y2="224.87469227085126" stroke="#ff0000" style="stroke-width: 1; stroke-linecap: round;"></line><line x1="16.88780608551832" x2="233.6110329605889" y1="233.61103296058866" y2="575.1121939144818" stroke="#ffbd00" style="stroke-width: 1; stroke-linecap: round;"></line><line x1="15.06584629159505" x2="576.9341537084049" y1="242.40894402848278" y2="349.5910559715173" stroke="#0077ff" style="stroke-width: 1; stroke-linecap: round;"></line><line x1="13.52113458979062" x2="340.74025700150605" y1="251.25974299849395" y2="13.52113458979062" stroke="#ffbd00" style="stroke-width: 1; stroke-linecap: round;"></line><line x1="12.255195424059366" x2="12.255195424059366" y1="260.1546952006089" y2="260.1546952006089" stroke="#ff0000" style="stroke-width: 1; stroke-linecap: round;"></line><line x1="11.269278123519143" x2="269.0850223909049" y1="269.085022390905" y2="580.7307218764809" stroke="#ffbd00" style="stroke-width: 1; stroke-linecap: round;"></line><line x1="10.564355669514327" x2="581.4356443304857" y1="278.0419114146162" y2="313.9580885853836" stroke="#0077ff" style="stroke-width: 1; stroke-linecap: round;"></line><line x1="10.141123735400754" x2="304.9834770963448" y1="287.0165229036553" y2="10.141123735400754" stroke="#ffbd00" style="stroke-width: 1; stroke-linecap: round;"></line></svg>
